<?xml version="1.0" standalone="no"?><!DOCTYPE svg PUBLIC "-//W3C//DTD SVG 1.1//EN" "http://www.w3.org/Graphics/SVG/1.1/DTD/svg11.dtd"><svg t="1702374743456" class="icon" viewBox="0 0 1024 1024" version="1.1" xmlns="http://www.w3.org/2000/svg" p-id="1170" xmlns:xlink="http://www.w3.org/1999/xlink" width="200" height="200"><path d="M959.909647 903.288471l-0.361412-0.421647-206.607059-206.607059a37.586824 37.586824 0 0 0-54.332235 0l-0.361412 0.421647-1.385411 1.385412-0.421647 0.421647a328.583529 328.583529 0 0 1-233.170824 96.195764c-181.910588 0-331.655529-149.744941-331.655529-331.535059 0-181.790118 149.805176-331.535059 331.655529-331.535058s331.655529 149.744941 331.655529 331.535058c0 27.708235-4.216471 53.308235-10.721882 79.149177a38.490353 38.490353 0 0 0 74.812235 18.251294c8.914824-31.322353 11.143529-64.572235 11.14353-99.568941C872.327529 237.628235 688.730353 54.211765 463.209412 54.211765 237.748706 54.211765 54.211765 237.688471 54.211765 463.149176s183.536941 408.997647 408.997647 408.997648c95.593412 0 186.729412-34.153412 261.059764-93.786353l181.007059 180.946823a38.731294 38.731294 0 0 0 28.250353 10.480941c9.637647 0 20.178824-2.409412 28.190118-10.480941l0.421647-0.421647 0.361412-0.481882a47.585882 47.585882 0 0 0 7.228235-27.52753 45.477647 45.477647 0 0 0-9.818353-27.587764z" p-id="1171" fill="#ffffff"></path></svg>