<?xml version="1.0" standalone="no"?><!DOCTYPE svg PUBLIC "-//W3C//DTD SVG 1.1//EN" "http://www.w3.org/Graphics/SVG/1.1/DTD/svg11.dtd"><svg t="1702374779329" class="icon" viewBox="0 0 1024 1024" version="1.1" xmlns="http://www.w3.org/2000/svg" p-id="1337" xmlns:xlink="http://www.w3.org/1999/xlink" width="200" height="200"><path d="M963.764706 722.823529h-72.884706V501.940706c0-204.197647-169.984-370.447059-378.88-370.447059s-378.88 166.249412-378.88 370.447059V722.823529H60.235294V501.940706C60.235294 257.385412 261.842824 60.235294 512 60.235294 762.157176 60.235294 963.764706 257.325176 963.764706 501.940706V722.823529z" p-id="1338" fill="#ffffff"></path><path d="M222.991059 963.764706h-24.335059C120.952471 963.764706 60.235294 902.324706 60.235294 829.138824v-92.16C60.235294 661.383529 123.361882 602.352941 198.656 602.352941h24.335059C300.694588 602.352941 361.411765 663.792941 361.411765 736.978824v92.16C361.411765 904.734118 298.285176 963.764706 222.991059 963.764706z m-24.335059-292.924235c-36.382118 0-65.536 28.310588-65.536 63.849411v92.099765c0 35.418353 29.153882 63.728941 65.536 63.728941h24.335059c36.382118 0 65.536-28.310588 65.536-63.789176v-89.750588c0-35.418353-29.153882-63.728941-65.536-63.728942l-24.335059-2.228706v-0.180705zM825.344 963.764706h-21.865412c-77.703529 0-138.480941-61.44-138.480941-134.625882v-92.16C664.997647 661.383529 728.244706 602.352941 803.538824 602.352941h21.865411C903.047529 602.352941 963.764706 663.792941 963.764706 736.978824v92.16C963.764706 904.734118 900.638118 963.764706 825.344 963.764706z m-24.335059-292.924235c-36.382118 0-65.536 28.310588-65.536 63.849411v92.099765c0 35.418353 29.093647 63.728941 65.536 63.728941h21.865412c36.442353 0 65.596235-28.310588 65.596235-63.789176v-89.750588c0-35.418353-29.153882-63.728941-65.596235-63.728942l-21.865412-2.228706v-0.180705z" p-id="1339" fill="#ffffff"></path></svg>